<svg width="35" height="35" viewBox="0 0 35 35" fill="none" xmlns="http://www.w3.org/2000/svg">
<path d="M17.241 32.5137C25.6583 32.5137 32.4819 25.683 32.4819 17.2569C32.4819 8.83072 25.6583 2 17.241 2C8.82361 2 2 8.83072 2 17.2569C2 25.683 8.82361 32.5137 17.241 32.5137Z" stroke="#E84A5F" stroke-width="4"/>
<path fill-rule="evenodd" clip-rule="evenodd" d="M17.241 11.0029C19.2757 11.0029 19.5167 11.0107 20.3203 11.0474C21.0633 11.0813 21.4668 11.2056 21.7353 11.31C22.091 11.4484 22.3449 11.6138 22.6115 11.8807C22.8782 12.1476 23.0433 12.4018 23.1815 12.7578C23.2859 13.0267 23.41 13.4306 23.444 14.1743C23.4806 14.9787 23.4884 15.22 23.4884 17.2569C23.4884 19.2937 23.4806 19.535 23.444 20.3394C23.41 21.0831 23.2859 21.4871 23.1815 21.7559C23.0433 22.1119 22.8782 22.3661 22.6115 22.633C22.3449 22.8999 22.091 23.0653 21.7353 23.2036C21.4668 23.3081 21.0633 23.4324 20.3203 23.4663C19.5168 23.503 19.2758 23.5108 17.241 23.5108C15.2061 23.5108 14.9651 23.503 14.1616 23.4663C13.4186 23.4324 13.0151 23.3081 12.7466 23.2036C12.3909 23.0653 12.137 22.8999 11.8704 22.633C11.6037 22.3661 11.4386 22.1119 11.3004 21.7559C11.196 21.4871 11.0719 21.0831 11.0379 20.3394C11.0013 19.535 10.9935 19.2937 10.9935 17.2569C10.9935 15.22 11.0013 14.9787 11.0379 14.1743C11.0719 13.4306 11.196 13.0267 11.3004 12.7578C11.4386 12.4018 11.6037 12.1476 11.8704 11.8807C12.137 11.6138 12.3909 11.4484 12.7466 11.31C13.0151 11.2056 13.4186 11.0813 14.1616 11.0474C14.9652 11.0107 15.2062 11.0029 17.241 11.0029ZM17.241 9.62842C15.1713 9.62842 14.9119 9.6372 14.0991 9.67432C13.2879 9.71139 12.734 9.84033 12.2492 10.0289C11.7481 10.2239 11.3231 10.4847 10.8995 10.9088C10.4759 11.3329 10.2153 11.7583 10.0205 12.2599C9.83214 12.7452 9.70334 13.2997 9.66631 14.1117C9.62923 14.9253 9.62048 15.1851 9.62048 17.2569C9.62048 19.3286 9.62923 19.5884 9.66631 20.402C9.70334 21.214 9.83214 21.7685 10.0205 22.2538C10.2153 22.7554 10.4759 23.1808 10.8995 23.6049C11.3231 24.029 11.7481 24.2898 12.2492 24.4848C12.734 24.6734 13.2879 24.8023 14.0991 24.8394C14.9119 24.8765 15.1713 24.8853 17.241 24.8853C19.3106 24.8853 19.5701 24.8765 20.3829 24.8394C21.194 24.8023 21.7479 24.6734 22.2327 24.4848C22.7338 24.2898 23.1588 24.029 23.5824 23.6049C24.0061 23.1808 24.2666 22.7554 24.4614 22.2538C24.6498 21.7685 24.7786 21.214 24.8156 20.402C24.8527 19.5884 24.8614 19.3286 24.8614 17.2569C24.8614 15.1851 24.8527 14.9253 24.8156 14.1117C24.7786 13.2997 24.6498 12.7452 24.4614 12.2599C24.2666 11.7583 24.0061 11.3329 23.5824 10.9088C23.1588 10.4847 22.7338 10.2239 22.2327 10.0289C21.7479 9.84033 21.194 9.71139 20.3829 9.67432C19.5701 9.6372 19.3106 9.62842 17.241 9.62842ZM17.2561 13.3518C15.0933 13.3518 13.34 15.1069 13.34 17.272C13.34 19.437 15.0933 21.1921 17.2561 21.1921C19.4189 21.1921 21.1722 19.437 21.1722 17.272C21.1722 15.1069 19.4189 13.3518 17.2561 13.3518ZM17.2561 19.8167C15.8522 19.8167 14.7141 18.6773 14.7141 17.272C14.7141 15.8666 15.8522 14.7273 17.2561 14.7273C18.66 14.7273 19.7981 15.8666 19.7981 17.272C19.7981 18.6773 18.66 19.8167 17.2561 19.8167ZM22.2003 13.1702C22.2003 13.6717 21.7942 14.0783 21.2931 14.0783C20.7921 14.0783 20.3859 13.6717 20.3859 13.1702C20.3859 12.6686 20.7921 12.262 21.2931 12.262C21.7942 12.262 22.2003 12.6686 22.2003 13.1702Z" fill="#E84A5F"/>
</svg>
