<svg width="35" height="35" viewBox="0 0 35 35" fill="none" xmlns="http://www.w3.org/2000/svg">
<path d="M17.241 32.5137C25.6583 32.5137 32.4819 25.683 32.4819 17.2569C32.4819 8.83072 25.6583 2 17.241 2C8.82361 2 2 8.83072 2 17.2569C2 25.683 8.82361 32.5137 17.241 32.5137Z" stroke="#E84A5F" stroke-width="4"/>
<path fill-rule="evenodd" clip-rule="evenodd" d="M10.6627 14.7693H13.3632V24.1909H10.6627V14.7693ZM11.9441 13.5909H11.9246C10.947 13.5909 10.3132 12.8707 10.3132 11.9586C10.3132 11.0279 10.9658 10.3219 11.9629 10.3219C12.9592 10.3219 13.5718 11.0261 13.5913 11.9559C13.5913 12.868 12.9592 13.5909 11.9441 13.5909ZM24.1686 24.1918H21.1064V19.3154C21.1064 18.0392 20.6274 17.1689 19.5741 17.1689C18.7684 17.1689 18.3203 17.7559 18.1118 18.3234C18.0336 18.5259 18.0458 18.8092 18.0458 19.0934V24.1918H15.0121C15.0121 24.1918 15.0512 15.5544 15.0121 14.7693H18.0458V16.248C18.225 15.6015 19.1944 14.6788 20.7414 14.6788C22.6607 14.6788 24.1686 16.0348 24.1686 18.9522V24.1918Z" fill="#E84A5F"/>
</svg>
