<svg width="35" height="35" viewBox="0 0 35 35" fill="none" xmlns="http://www.w3.org/2000/svg">
<path d="M17.241 32.5137C25.6583 32.5137 32.4819 25.683 32.4819 17.2569C32.4819 8.83072 25.6583 2 17.241 2C8.82361 2 2 8.83072 2 17.2569C2 25.683 8.82361 32.5137 17.241 32.5137Z" stroke="#E84A5F" stroke-width="4"/>
<path fill-rule="evenodd" clip-rule="evenodd" d="M23.1476 13.6824C23.7641 13.2929 24.2372 12.6754 24.4592 11.9397C23.882 12.3012 23.2441 12.5627 22.5635 12.7042C22.0204 12.0912 21.2442 11.7089 20.3852 11.7089C18.7371 11.7089 17.4016 13.1199 17.4016 14.8598C17.4016 15.1069 17.4264 15.3476 17.4776 15.5775C14.9978 15.4459 12.799 14.1927 11.326 12.285C11.0689 12.752 10.9221 13.2929 10.9221 13.8699C10.9221 14.9626 11.4489 15.9273 12.2499 16.4935C11.7606 16.4772 11.3004 16.3339 10.8973 16.0995V16.1382C10.8973 17.6655 11.9254 18.9394 13.2925 19.2279C13.0415 19.3018 12.7785 19.3388 12.5052 19.3388C12.3131 19.3388 12.1252 19.3198 11.9442 19.2829C12.3234 20.5342 13.4258 21.4466 14.7323 21.4709C13.7101 22.3166 12.4233 22.8196 11.0254 22.8196C10.7846 22.8196 10.5464 22.8061 10.3132 22.7764C11.6342 23.6698 13.2029 24.1918 14.8885 24.1918C20.3792 24.1918 23.3799 19.3901 23.3799 15.2259C23.3799 15.0888 23.3782 14.9527 23.3722 14.8184C23.9554 14.3739 24.4626 13.8186 24.8614 13.1866C24.326 13.4372 23.7505 13.6067 23.1476 13.6824Z" fill="#E84A5F"/>
</svg>
